<?xml version="1.0" standalone="no"?>
<!DOCTYPE svg PUBLIC "-//W3C//DTD SVG 20010904//EN"
 "http://www.w3.org/TR/2001/REC-SVG-20010904/DTD/svg10.dtd">
<svg version="1.0" xmlns="http://www.w3.org/2000/svg"
 width="512.000000pt" height="512.000000pt" viewBox="0 0 512.000000 512.000000"
 preserveAspectRatio="xMidYMid meet">

<g transform="translate(0.000000,512.000000) scale(0.100000,-0.100000)"
fill="#000000" stroke="none">
<path d="M2321 5110 c-497 -48 -990 -251 -1376 -565 -114 -92 -294 -274 -384
-387 -229 -287 -417 -675 -495 -1023 -49 -218 -60 -325 -60 -575 0 -250 11
-357 60 -575 79 -355 272 -749 509 -1040 92 -114 274 -294 387 -384 287 -229
675 -417 1023 -495 218 -49 325 -60 575 -60 250 0 357 11 575 60 261 58 603
204 828 353 389 259 688 599 893 1016 125 255 196 484 241 775 24 161 24 539
0 700 -45 291 -116 520 -241 775 -134 272 -283 480 -498 692 -211 209 -404
346 -673 478 -252 124 -486 197 -765 240 -126 19 -468 27 -599 15z m299 -896
c41 -35 45 -43 290 -626 l213 -508 491 0 c270 0 509 -5 530 -10 89 -20 120
-84 76 -155 -12 -19 -208 -211 -436 -426 -295 -278 -413 -396 -410 -407 3 -10
59 -212 126 -451 130 -468 140 -526 100 -569 -26 -27 -95 -30 -143 -6 -18 9
-227 133 -465 277 l-432 260 -456 -273 c-412 -248 -460 -274 -507 -278 -75 -6
-99 16 -104 94 -4 50 14 135 117 547 66 268 118 492 115 497 -3 5 -178 162
-388 347 -441 390 -456 405 -457 464 0 26 28 58 65 75 11 5 249 11 530 14
l509 5 231 536 c127 294 241 549 254 565 47 59 101 70 151 28z"/>
</g>
</svg>
